<?xml version="1.0" standalone="no"?>
<!DOCTYPE svg PUBLIC "-//W3C//DTD SVG 20010904//EN"
 "http://www.w3.org/TR/2001/REC-SVG-20010904/DTD/svg10.dtd">
<svg version="1.0" xmlns="http://www.w3.org/2000/svg"
 width="100.000000%" height="100.000000%" viewBox="0 0 100.000000 100.000000"
 preserveAspectRatio="xMidYMid meet">
<metadata>
Created by potrace 1.12, written by Peter Selinger 2001-2015
</metadata>
<g transform="translate(0.000000,100.000000) scale(0.100000,-0.100000)"
fill="#000000" stroke="none">
<path d="M88 941 l-33 -29 -3 -199 c-4 -217 3 -259 45 -292 24 -20 39 -21 267
-21 l242 0 23 -31 c28 -38 93 -68 147 -69 23 0 61 11 91 26 125 62 137 240 23
323 -77 56 -178 50 -246 -14 l-37 -35 -178 0 -179 0 0 156 0 156 -29 29 c-40
40 -89 40 -133 0z"/>
</g>
</svg>
